# xmcd
#
# Track frame offsets:
#	180
#	25102
#	46070
#	75477
#	99550
#	112992
#	131030
#	148032
#	165550
#	189167
#	207365
#
# Disc length: 2883 seconds
#
# Revision: 1
# Processed by: cddbd v1.4PL0 Copyright (c) Steve Scherf et al.
# Submitted via: audiograbber 1.81.03
#
DISCID=870b410b
DTITLE=Koulsy Lamko - bir ki mbo
DYEAR=1900
DGENRE=
TTITLE0=mame non yo
TTITLE1=bir ki mbo
TTITLE2=boua gué
TTITLE3=paysans au labour
TTITLE4=ki sa yan ki tiga ko
TTITLE5=mour bang
TTITLE6=mo bé
TTITLE7=tu m'as forcée
TTITLE8=marada
TTITLE9=mi gos pa
TTITLE10=sankara parle
EXTD=web site - http://www.chez.com/birkimbo\n\nA disk to celebrate\nthe death 
EXTD=anniversary of Thomas Sankara.\n\nFrench Title :\nbir ki mbo\nHommage à Th
EXTD=omas Sankara
EXTT0=language - sara
EXTT1=language - sara
EXTT2=language - sara
EXTT3=language - french
EXTT4=language - sara
EXTT5=language - sara
EXTT6=language - sara
EXTT7=language - french
EXTT8=language - sara
EXTT9=language - sara
EXTT10=interviews
PLAYORDER=
